<svg width="62" height="64" viewBox="0 0 62 64" fill="none" xmlns="http://www.w3.org/2000/svg">
<ellipse cx="31" cy="32" rx="31" ry="32" fill="#1C1C1C"/>
<g clip-path="url(#clip0_306_3)">
<path d="M31.0001 31.9998C36.1369 31.9998 40.3001 27.7023 40.3001 22.3998C40.3001 17.0973 36.1369 12.7998 31.0001 12.7998C25.8633 12.7998 21.7001 17.0973 21.7001 22.3998C21.7001 27.7023 25.8633 31.9998 31.0001 31.9998ZM37.5101 34.3998H36.2967C34.6838 35.1648 32.8892 35.5998 31.0001 35.5998C29.111 35.5998 27.3237 35.1648 25.7035 34.3998H24.4901C19.099 34.3998 14.7251 38.9148 14.7251 44.4798V47.5998C14.7251 49.5873 16.2872 51.1998 18.2126 51.1998H43.7876C45.713 51.1998 47.2751 49.5873 47.2751 47.5998V44.4798C47.2751 38.9148 42.9012 34.3998 37.5101 34.3998Z" fill="#AE1B7C"/>
</g>
<defs>
<clipPath id="clip0_306_3">
<rect width="32.55" height="38.4" fill="white" transform="translate(14.7251 12.7998)"/>
</clipPath>
</defs>
</svg>
