<svg width="295" height="274" viewBox="0 0 295 274" fill="none" xmlns="http://www.w3.org/2000/svg">
<path d="M61.5625 0.626586C30.4426 6.03659 7.99717 28.7016 1.27439 61.5033C-0.460518 69.8746 -0.406302 85.2504 1.32861 93.7356C3.60568 104.954 8.32246 116.059 15.3705 126.765C20.7379 134.965 24.6957 139.863 33.9124 149.772C46.3278 163.097 58.689 174.373 85.9054 197.095C93.7667 203.644 108.839 216.286 119.411 225.17L138.603 241.229L150.639 231.093C157.254 225.512 171.729 213.439 182.735 204.213C217.216 175.455 230.12 163.838 243.728 149.202C262.324 129.157 271.92 112.528 275.77 93.7356C277.396 85.7629 277.559 70.4441 276.041 62.6992C272.842 45.7859 265.523 31.4921 254.354 20.3873C244.487 10.6493 232.614 4.21427 218.518 1.13911C211.741 -0.341518 196.072 -0.398464 189.62 1.08217C170.428 5.52406 154.272 17.54 142.236 36.4465C140.447 39.2939 138.766 41.6287 138.549 41.6287C138.332 41.6287 136.652 39.2939 134.808 36.3895C122.935 17.7108 106.779 5.63797 87.8572 1.19607C82.4356 -0.113715 67.4178 -0.398467 61.5625 0.626586Z" fill="#C93192"/>
<path d="M78.9116 33.3973C47.7917 38.8073 25.3463 61.4724 18.6235 94.2741C16.8886 102.645 16.9428 118.021 18.6777 126.506C20.9548 137.725 25.6716 148.83 32.7196 159.536C38.087 167.736 42.0448 172.634 51.2615 182.543C63.6769 195.868 76.0382 207.144 103.255 229.866C111.116 236.415 126.188 249.057 136.76 257.941L155.952 274L167.988 263.863C174.603 258.283 189.078 246.21 200.084 236.984C234.566 208.226 247.469 196.609 261.077 181.973C279.673 161.928 289.269 145.299 293.119 126.506C294.745 118.534 294.908 103.215 293.39 95.47C290.191 78.5566 282.872 64.2628 271.703 53.1581C261.836 43.4201 249.963 36.985 235.867 33.9099C229.09 32.4292 213.421 32.3723 206.97 33.8529C187.777 38.2948 171.621 50.3107 159.585 69.2172C157.796 72.0646 156.115 74.3994 155.898 74.3994C155.681 74.3994 154.001 72.0646 152.157 69.1603C140.284 50.4815 124.128 38.4087 105.206 33.9668C99.7847 32.657 84.7669 32.3723 78.9116 33.3973Z" fill="#F489F2"/>
</svg>
